<?xml version="1.0" encoding="UTF-8"?>
<svg width="27px" height="19px" viewBox="0 0 27 19" version="1.1" xmlns="http://www.w3.org/2000/svg" xmlns:xlink="http://www.w3.org/1999/xlink">
    <title>icon/car</title>
    <g id="Page-1" stroke="none" stroke-width="1" fill="none" fill-rule="evenodd">
        <g id="CO2_Calculator_3" transform="translate(-707.000000, -134.000000)" fill="#16A398" fill-rule="nonzero">
            <path d="M733.844857,139.879083 C733.712815,139.71892 733.515788,139.625435 733.309083,139.625435 L730.681366,139.625435 C730.032906,137.92483 729.18811,136.258595 728.227863,135.629632 C724.906059,133.456789 716.095156,133.456789 712.773352,135.629632 C711.812414,136.259282 710.971074,137.92758 710.319157,139.625435 L707.691441,139.625435 C707.482662,139.625435 707.286326,139.71892 707.155666,139.879083 C707.024315,140.038557 706.971774,140.249586 707.014636,140.452367 L707.403851,142.327569 C707.470218,142.647206 707.75366,142.875419 708.080656,142.875419 L708.859085,142.875419 C708.107617,143.737408 707.74329,144.822798 707.738451,145.908875 C707.733612,147.250663 708.245882,148.46322 709.182623,149.321084 C709.192993,149.33002 709.203363,149.336207 709.213042,149.345143 L709.213042,151.968914 C709.213042,152.537386 709.67761,153 710.250025,153 L712.673801,153 C713.246216,153 713.710785,152.537386 713.710785,151.968914 L713.710785,150.914456 L727.289047,150.914456 L727.289047,151.968914 C727.289047,152.537386 727.753616,153 728.326031,153 L730.749807,153 C731.320839,153 731.786791,152.537386 731.786791,151.968914 L731.786791,149.396697 C732.780912,148.491403 733.255851,147.245851 733.262073,146.002361 C733.266221,144.879164 732.885302,143.753905 732.08959,142.874045 L732.919868,142.874045 C733.248246,142.874045 733.531688,142.645831 733.596673,142.325507 L733.986579,140.450992 C734.026675,140.249586 733.976209,140.039932 733.844857,139.879083 Z M713.91196,137.351546 C716.559724,135.618634 724.440108,135.618634 727.08649,137.351546 C727.600834,137.686993 728.262429,139.043215 728.868719,140.703952 L712.131113,140.703952 C712.73602,139.043903 713.397616,137.688368 713.91196,137.351546 Z M710.810688,146.167334 C710.810688,145.046887 711.724616,144.139531 712.85078,144.139531 C713.978327,144.139531 714.890872,145.046887 714.890872,146.167334 C714.890872,147.287782 713.978327,148.195825 712.85078,148.195825 C711.724616,148.195825 710.810688,147.287782 710.810688,146.167334 Z M728.176014,148.195825 C727.04985,148.195825 726.135922,147.287782 726.135922,146.167334 C726.135922,145.046887 727.04985,144.139531 728.176014,144.139531 C729.303561,144.139531 730.216106,145.046887 730.216106,146.167334 C730.216106,147.287782 729.302178,148.195825 728.176014,148.195825 Z" id="icon/car"></path>
        </g>
    </g>
</svg>