<?xml version="1.0" encoding="UTF-8"?>
<svg width="15px" height="24px" viewBox="0 0 15 24" version="1.1" xmlns="http://www.w3.org/2000/svg" xmlns:xlink="http://www.w3.org/1999/xlink">
    <title>icon/electricity</title>
    <g id="Page-1" stroke="none" stroke-width="1" fill="none" fill-rule="evenodd">
        <g id="CO2_Calculator_1_mobile" transform="translate(-153.000000, -107.000000)" fill="#16A398" fill-rule="nonzero">
            <path d="M167.934614,116.241577 C167.845323,116.084191 167.678197,115.986916 167.497078,115.986911 L160.908898,115.986911 L162.013424,107.557956 C162.037819,107.325755 161.899723,107.107106 161.679398,107.029088 C161.459074,106.951071 161.213922,107.034011 161.086427,107.229704 L153.074496,121.249121 C152.979095,121.404099 152.975053,121.598485 153.063928,121.757286 C153.152804,121.916086 153.320704,122.014477 153.502853,122.014499 L159.992588,122.014499 L159.117265,130.456137 C159.099567,130.687453 159.241843,130.901089 159.462281,130.974201 C159.682719,131.047313 159.924683,130.961117 160.04904,130.765177 L167.928579,116.747266 C168.021601,116.592082 168.023906,116.398931 167.934614,116.241577 L167.934614,116.241577 Z" id="icon/electricity"></path>
        </g>
    </g>
</svg>