<?xml version="1.0" encoding="UTF-8"?>
<svg width="16px" height="24px" viewBox="0 0 16 24" version="1.1" xmlns="http://www.w3.org/2000/svg" xmlns:xlink="http://www.w3.org/1999/xlink">
    <title>icon/gas</title>
    <g id="Page-1" stroke="none" stroke-width="1" fill="none" fill-rule="evenodd">
        <g id="CO2_Calculator_2" transform="translate(-712.000000, -132.000000)" fill="#16A398" fill-rule="nonzero">
            <path d="M720.020926,132 C720.020926,132 719.633102,137.201664 715.998883,140.892747 C712.769918,143.511666 712.252819,144.903599 712.052371,146.87864 C711.85047,148.862362 712.069801,152.69669 715.705473,155.312715 C715.705473,155.312715 714.3982,152.129499 717.618449,149.514921 C720.689088,147.021885 720.309979,145.250859 720.263498,145.087358 C720.301264,145.226262 721.028979,147.829264 722.6224,149.309459 C724.256491,150.827274 724.016824,153.511304 722.471337,156 C722.471337,156 727.497076,152.763248 727.943001,148.423946 C728.663454,141.358654 722.359493,133.147405 720.020926,132 Z" id="icon/gas"></path>
        </g>
    </g>
</svg>