<?xml version="1.0" encoding="UTF-8"?>
<svg width="11px" height="30px" viewBox="0 0 11 30" version="1.1" xmlns="http://www.w3.org/2000/svg" xmlns:xlink="http://www.w3.org/1999/xlink">
    <title>icon/man</title>
    <g id="Page-1" stroke="none" stroke-width="1" fill="none" fill-rule="evenodd">
        <g id="CO2_Calculator_11" transform="translate(-715.000000, -132.000000)" fill="#16A398" fill-rule="nonzero">
            <path d="M723.338057,141.375 C724.282341,141.375 725.067104,142.100625 725.160616,143.064375 L725.160616,143.064375 L725.994886,151.59375 C726.022389,151.858125 725.938046,152.120625 725.763857,152.3175 C725.589669,152.5125 725.343972,152.625 725.083606,152.625 L725.083606,152.625 L724.080649,152.625 L723.328889,160.3125 C723.235378,161.2725 722.450614,162 721.504497,162 L721.504497,162 L719.496748,162 C718.550631,162 717.764033,161.2725 717.670522,160.3125 L717.670522,160.3125 L716.918762,152.625 L715.915804,152.625 C715.657272,152.625 715.409742,152.5125 715.237387,152.3175 C715.063199,152.11875 714.978855,151.858125 715.004525,151.59375 L715.004525,151.59375 L715.838795,143.0625 C715.932306,142.100625 716.71707,141.375 717.663187,141.375 L717.663187,141.375 Z M720.499705,132 C722.525,132 724.166826,133.678932 724.166826,135.75 C724.166826,137.821068 722.525,139.5 720.499705,139.5 C718.47441,139.5 716.832585,137.821068 716.832585,135.75 C716.832585,133.678932 718.47441,132 720.499705,132 Z" id="icon/man"></path>
        </g>
    </g>
</svg>