<?xml version="1.0" encoding="UTF-8"?>
<svg width="47px" height="24px" viewBox="0 0 47 24" version="1.1" xmlns="http://www.w3.org/2000/svg" xmlns:xlink="http://www.w3.org/1999/xlink">
    <title>icon/plane</title>
    <g id="Page-1" stroke="none" stroke-width="1" fill="none" fill-rule="evenodd">
        <g id="CO2_Calculator_9" transform="translate(-697.000000, -132.000000)" fill="#16A398" fill-rule="nonzero">
            <path d="M720.5,132 C721.26047,132 721.876953,132.616483 721.876953,133.376953 L721.876953,133.376953 L721.876953,136.190356 C723.86509,136.527346 725.610148,137.580791 726.832148,139.073043 L726.832148,139.073043 L734.627723,139.073043 L734.622732,139.239625 C734.536641,140.672312 733.347481,141.807608 731.893158,141.807608 L731.893158,141.807608 L728.303193,141.807608 C728.53443,142.557152 728.659273,143.352455 728.659273,144.176288 L728.659273,144.176288 L728.659273,146.058216 L744,146.058216 C744,147.568474 742.775694,148.792781 741.265435,148.792781 L741.265435,148.792781 L737.251461,148.792781 C737.48077,149.212172 737.611213,149.69227 737.611213,150.202084 C737.611213,151.835622 736.272906,153.16453 734.627814,153.16453 C732.982723,153.16453 731.644416,151.835622 731.644416,150.202084 C731.644416,149.69227 731.774768,149.212172 732.004168,148.792781 L732.004168,148.792781 L728.609336,148.792781 C728.159439,152.840666 724.694658,156 720.500092,156 C716.305617,156 712.840744,152.840666 712.390848,148.792781 L712.390848,148.792781 L708.995924,148.792781 C709.225232,149.212172 709.355676,149.69227 709.355676,150.202084 C709.355676,151.835622 708.017369,153.16453 706.372277,153.16453 C704.727186,153.16453 703.388879,151.835622 703.388879,150.202084 C703.388879,149.69227 703.51923,149.212172 703.748631,148.792781 L703.748631,148.792781 L699.734565,148.792781 C698.224306,148.792781 697,147.568474 697,146.058216 L697,146.058216 L712.340818,146.058216 L712.340818,144.176288 C712.340818,143.352546 712.465662,142.557152 712.696898,141.807608 L712.696898,141.807608 L709.106842,141.807608 C707.596584,141.807608 706.372277,140.583302 706.372277,139.073043 L706.372277,139.073043 L714.167852,139.073043 C715.389852,137.580791 717.13491,136.527346 719.123047,136.190356 L719.123047,136.190356 L719.123047,133.376953 C719.123047,132.616483 719.73953,132 720.5,132 Z M724.245895,142.443941 L716.754105,142.443941 C715.998975,142.443941 715.386822,143.056095 715.386822,143.811224 C715.386822,144.566353 715.998975,145.178506 716.754105,145.178506 L716.754105,145.178506 L724.245895,145.178506 C725.001025,145.178506 725.613178,144.566353 725.613178,143.811224 C725.613178,143.056095 725.001025,142.443941 724.245895,142.443941 L724.245895,142.443941 Z" id="icon/plane"></path>
        </g>
    </g>
</svg>