<?xml version="1.0" encoding="UTF-8"?>
<svg width="26px" height="22px" viewBox="0 0 26 22" version="1.1" xmlns="http://www.w3.org/2000/svg" xmlns:xlink="http://www.w3.org/1999/xlink">
    <title>icon/wallet</title>
    <g id="Page-1" stroke="none" stroke-width="1" fill="none" fill-rule="evenodd">
        <g id="CO2_Calculator_10" transform="translate(-707.000000, -133.000000)" fill="#16A398" fill-rule="nonzero">
            <path d="M725.117021,133 C726.859574,133 728.297872,134.43 728.297872,136.1625 L728.297872,136.1625 L728.297872,137.84 C729.874468,138.06 731.06383,139.38 731.06383,140.975 L731.06383,140.975 L731.06383,142.35 L731.202128,142.35 C732.197872,142.35 733,143.1475 733,144.1375 L733,144.1375 L733,148.5375 C733,149.5275 732.197872,150.325 731.202128,150.325 L731.202128,150.325 L731.06383,150.325 L731.06383,151.8375 C731.06383,153.57 729.625532,155 727.882979,155 L727.882979,155 L710.180851,155 C708.438298,155 707,153.57 707,151.8375 L707,151.8375 L707,136.3 C707.02766,134.4575 708.548936,133 710.374468,133 L710.374468,133 Z M731.06383,144.275 L726.5,144.275 C725.365957,144.275 724.425532,145.21 724.425532,146.3375 C724.425532,147.465 725.365957,148.4 726.5,148.4 L726.5,148.4 L731.06383,148.4 L731.06383,144.275 Z M727.053191,144.9625 C727.81699,144.9625 728.43617,145.578108 728.43617,146.3375 C728.43617,147.096892 727.81699,147.7125 727.053191,147.7125 C726.289393,147.7125 725.670213,147.096892 725.670213,146.3375 C725.670213,145.578108 726.289393,144.9625 727.053191,144.9625 Z M725.089362,134.925 L710.374468,134.925 C709.6,134.925 708.93617,135.5575 708.93617,136.355 C708.93617,137.1525 709.6,137.8125 710.374468,137.8125 L710.374468,137.8125 L726.334043,137.8125 L726.334043,136.1625 C726.334043,135.475 725.780851,134.925 725.089362,134.925 L725.089362,134.925 Z" id="icon/wallet"></path>
        </g>
    </g>
</svg>