<?xml version="1.0" encoding="UTF-8"?>
<svg width="41px" height="37px" viewBox="0 0 41 37" version="1.1" xmlns="http://www.w3.org/2000/svg" xmlns:xlink="http://www.w3.org/1999/xlink">
    <!-- Generator: Sketch 51.3 (57544) - http://www.bohemiancoding.com/sketch -->
    <title>Artboard</title>
    <desc>Created with Sketch.</desc>
    <defs>
        <linearGradient x1="-0.104444444%" y1="49.6164516%" x2="98.9237037%" y2="49.6164516%" id="linearGradient-1">
            <stop stop-color="#16A398" offset="0%"></stop>
            <stop stop-color="#52D5AB" offset="100%"></stop>
        </linearGradient>
        <linearGradient x1="8.77414881e-05%" y1="50%" x2="99.5%" y2="50%" id="linearGradient-2">
            <stop stop-color="#16A398" offset="0%"></stop>
            <stop stop-color="#52D5AB" offset="100%"></stop>
        </linearGradient>
        <linearGradient x1="-0.0291828794%" y1="49.8110599%" x2="99.7466926%" y2="49.8110599%" id="linearGradient-3">
            <stop stop-color="#16A398" offset="0%"></stop>
            <stop stop-color="#52D5AB" offset="100%"></stop>
        </linearGradient>
    </defs>
    <g id="Artboard" stroke="none" stroke-width="1" fill="none" fill-rule="evenodd">
        <g id="natures" fill-rule="nonzero">
            <path d="M30.2,5.2 C29.2,5.2 28.2,5.3 27.2,5.6 L27.8,7.5 C28,7.4 28.2,7.4 28.4,7.4 C30,7.2 31.1,7.4 31.9,8.1 C33.5,9.5 33.7,12.8 33.6,15.9 C33.6,19.5 33.5,26.3 33.6,30.7 C33.7,34.1 36.4,36.2 38.3,36.2 L40.7,36.2 L40.7,15.6 C40.6,9.8 35.9,5.2 30.2,5.2 Z M38.6,34.1 L38.2,34.1 C37.4,34.1 35.5,32.9 35.4,30.5 C35.3,26.1 35.4,19.4 35.4,15.8 C35.4,13 35.3,10.2 34.3,8.2 C36.9,9.7 38.6,12.4 38.6,15.6 L38.6,34.1 Z" id="Shape" fill="url(#linearGradient-1)"></path>
            <path d="M15.3,1.1 C13.5,3 12,5.3 11,7.7 C9.8,3.3 5.8,0 1,0 L0,0 L0,3.8 C0,6.6 1.5,8.7 4.5,10.3 L4.9,10.5 C6.9,11.5 9.3,12.8 9.4,14.3 C9.4,14.3 9.4,15.1 9.4,15.5 L9.4,34 L6.2,34 L6.2,14 L4.3,14 L4.3,36 L11.4,36 L11.4,15.6 C11.4,10.7 13.3,6 16.8,2.5 L15.3,1.1 Z M9.4,11 C8.4,10.2 7,9.5 5.8,8.8 L5.4,8.6 C3.1,7.4 1.9,5.9 1.9,3.8 L1.9,2 C6.1,2.5 9.4,6.1 9.4,10.4 L9.4,11 Z" id="Shape" fill="url(#linearGradient-2)"></path>
            <path d="M30.2,1.9 C33.4,1.9 36.6,3.1 39,5.2 L40.3,3.7 C37.4,1.3 33.8,0 30.2,0 C21.6,0 14.6,7 14.6,15.6 L14.6,21.7 L16.6,21.7 C19.5,21.7 21.5,20.1 21.9,17.3 C22,16.5 22.1,15.6 22.2,14.6 C22.5,11.8 22.8,8.4 23.9,6.6 C25.4,4.1 26.8,3 28.3,2.1 C28.9,2 29.5,1.9 30.2,1.9 Z M22.2,5.5 C20.9,7.7 20.5,11.2 20.2,14.3 C20.1,15.3 20,16.1 19.9,16.9 C19.6,18.7 18.5,19.6 16.5,19.6 L16.5,15.5 C16.5,10.4 19.3,5.9 23.5,3.6 C23.1,4.2 22.7,4.8 22.2,5.5 Z" id="Shape" fill="url(#linearGradient-3)"></path>
        </g>
    </g>
</svg>