<?xml version="1.0" encoding="UTF-8"?>
<svg width="24px" height="24px" viewBox="0 0 24 24" version="1.1" xmlns="http://www.w3.org/2000/svg" xmlns:xlink="http://www.w3.org/1999/xlink">
    <title>icon/bus</title>
    <g id="Page-1" stroke="none" stroke-width="1" fill="none" fill-rule="evenodd">
        <g id="CO2_Calculator_8" transform="translate(-708.000000, -132.000000)" fill="#16A398" fill-rule="nonzero">
            <path d="M727.5,132 C728.879016,132 729.999984,133.122 729.999984,134.499984 L729.999984,134.499984 L729.999951,139.050192 C731.140013,139.282475 732,140.293038 732,141.500016 L732,141.500016 L732,142.5 C732,143.327016 731.327016,144 730.5,144 L730.5,144 L729.999,143.999 L729.999984,151.5 C729.999984,152.706581 729.14054,153.716899 728.000957,153.949572 L728.000016,154.5 C728.000016,155.327016 727.327031,156 726.500016,156 L726.500016,156 L724.5,156 C723.672984,156 723,155.327016 723,154.5 L723,154.5 L723,153.999 L716.999,153.999 L717,154.5 C717,155.278368 716.403862,155.920292 715.644239,155.99312 L715.5,156 L713.499937,156 C712.672922,156 711.999937,155.327016 711.999937,154.5 L711.999937,154.5 L711.999057,153.949572 C710.859496,153.716899 710.000016,152.706581 710.000016,151.5 L710.000016,151.5 L710,143.999 L709.5,144 C708.721632,144 708.079708,143.403862 708.00688,142.644239 L708,142.5 L708,141.500016 C708,140.293038 708.859987,139.282475 710.000049,139.050192 L710.000016,134.499984 C710.000016,133.122 711.120984,132 712.5,132 L712.5,132 Z M714.500016,147.999984 C713.673,147.999984 713.000016,148.672969 713.000016,149.499984 C713.000016,150.327 713.673,150.999984 714.500016,150.999984 C715.326984,150.999984 716.000016,150.327 716.000016,149.499984 C716.000016,148.672969 715.327031,147.999984 714.500016,147.999984 Z M725.499984,147.999984 C724.672969,147.999984 723.999984,148.672969 723.999984,149.499984 C723.999984,150.327 724.672969,150.999984 725.499984,150.999984 C726.327,150.999984 726.999984,150.327 726.999984,149.499984 C726.999984,148.672969 726.327,147.999984 725.499984,147.999984 Z M726.499969,138 L713.499984,138 C712.672969,138 711.999984,138.672984 711.999984,139.5 L711.999984,139.5 L711.999984,144.500016 C711.999984,145.327031 712.672969,146.000016 713.499984,146.000016 L713.499984,146.000016 L726.500016,146.000016 C727.327031,146.000016 728.000016,145.327031 728.000016,144.500016 L728.000016,144.500016 L728.000016,139.5 C728.000016,138.672984 727.326984,138 726.499969,138 L726.499969,138 Z M725.500031,134.000016 L714.500016,134.000016 C713.673,134.000016 713.000016,134.673 713.000016,135.500016 C713.000016,136.327031 713.673,137.000016 714.500016,137.000016 L714.500016,137.000016 L725.500031,137.000016 C726.327047,137.000016 727.000031,136.327031 727.000031,135.500016 C727.000031,134.673 726.327047,134.000016 725.500031,134.000016 L725.500031,134.000016 Z" id="icon/bus"></path>
        </g>
    </g>
</svg>