<?xml version="1.0" encoding="UTF-8"?>
<svg width="18px" height="24px" viewBox="0 0 18 24" version="1.1" xmlns="http://www.w3.org/2000/svg" xmlns:xlink="http://www.w3.org/1999/xlink">
    <title>icon/food</title>
    <g id="Page-1" stroke="none" stroke-width="1" fill="none" fill-rule="evenodd">
        <g id="CO2_Calculator_4_mobile" transform="translate(-151.000000, -107.000000)" fill="#16A398" fill-rule="nonzero">
            <path d="M154.75,107 C156.8215,107 158.5,109.0145 158.5,111.5 C158.5,113.5505 157.3495,115.262 155.7865,115.8035 L155.7865,115.8035 L156.9895,128.5355 C156.997,128.606 157,128.678 157,128.75 C157,129.992 155.992,131 154.75,131 C153.508,131 152.5,129.992 152.5,128.75 C152.5,128.6645 152.5045,128.579 152.515,128.4965 L152.515,128.4965 L153.9295,115.8845 C152.254,115.4345 151,113.6465 151,111.5 C151,109.0145 152.6785,107 154.75,107 Z M168.25,107 C168.664,107 169,107.336 169,107.75 L169,107.75 L169,112.25 C169,113.954 167.8495,115.3805 166.2895,115.835 L166.2895,115.835 L167.4895,128.5355 C167.497,128.606 167.5,128.678 167.5,128.75 C167.5,129.992 166.492,131 165.25,131 C164.008,131 163,129.992 163,128.75 C163,128.6645 163.0045,128.579 163.0135,128.4965 L163.0135,128.4965 L164.4265,115.9025 C162.754,115.526 161.5,114.0335 161.5,112.25 L161.5,112.25 L161.5,107.75 C161.5,107.336 161.836,107 162.25,107 C162.664,107 163,107.336 163,107.75 L163,107.75 L163,111.5 C163,111.914 163.336,112.25 163.75,112.25 C164.164,112.25 164.5,111.914 164.5,111.5 L164.5,111.5 L164.5,107.75 C164.5,107.336 164.836,107 165.25,107 C165.664,107 166,107.336 166,107.75 L166,107.75 L166,111.5 C166,111.914 166.336,112.25 166.75,112.25 C167.164,112.25 167.5,111.914 167.5,111.5 L167.5,111.5 L167.5,107.75 C167.5,107.336 167.836,107 168.25,107 Z" id="icon/food"></path>
        </g>
    </g>
</svg>